HIERARCHY
ROOT Hips
{
  OFFSET 52.4388 87.9072 -102.522
  CHANNELS 6 Xposition Yposition Zposition Zrotation Xrotation Yrotation
  JOINT ToSpine
  {
    OFFSET -2.69724 7.43032 -0.144315
    CHANNELS 3 Zrotation Xrotation Yrotation
    JOINT Spine
    {
      OFFSET -0.0310711 10.7595 1.96963
      CHANNELS 3 Zrotation Xrotation Yrotation
      JOINT Spine1
      {
        OFFSET 19.9056 3.91189 0.764692
        CHANNELS 3 Zrotation Xrotation Yrotation
        JOINT Neck
        {
          OFFSET 25.9749 7.03908 -0.130764
          CHANNELS 3 Zrotation Xrotation Yrotation
          JOINT Head
          {
            OFFSET 9.52751 0.295786 -0.907742
            CHANNELS 3 Zrotation Xrotation Yrotation
            End Site
            {
              OFFSET 16.4037 0.713936 2.7358
            }
          }
        }
        JOINT LeftShoulder
        {
          OFFSET 17.7449 4.33886 11.7777
          CHANNELS 3 Zrotation Xrotation Yrotation
          JOINT LeftArm
          {
            OFFSET 0.911315 1.27913 9.80584
            CHANNELS 3 Zrotation Xrotation Yrotation
            JOINT LeftForeArm
            {
              OFFSET 28.6126 1.18197 -3.53199
              CHANNELS 3 Zrotation Xrotation Yrotation
              JOINT LeftHand
              {
                OFFSET 27.5088 0.0218783 0.327423
                CHANNELS 3 Zrotation Xrotation Yrotation
                End Site
                {
                  OFFSET 18.6038 -0.000155887 0.382096
                }
              }
            }
          }
        }
        JOINT RightShoulder
        {
          OFFSET 17.1009 2.89543 -12.2328
          CHANNELS 3 Zrotation Xrotation Yrotation
          JOINT RightArm
          {
            OFFSET 1.4228 0.178766 -10.211
            CHANNELS 3 Zrotation Xrotation Yrotation
            JOINT RightForeArm
            {
              OFFSET 28.733 1.87905 2.64907
              CHANNELS 3 Zrotation Xrotation Yrotation
              JOINT RightHand
              {
                OFFSET 27.4588 0.290562 -0.101845
                CHANNELS 3 Zrotation Xrotation Yrotation
                End Site
                {
                  OFFSET 17.8396 -0.255518 -0.000602873
                }
              }
            }
          }
        }
      }
    }
  }
  JOINT LeftUpLeg
  {
    OFFSET -5.61296 -2.22332 -10.2353
    CHANNELS 3 Zrotation Xrotation Yrotation
    JOINT LeftLeg
    {
      OFFSET 2.56703 -44.7417 -7.93097
      CHANNELS 3 Zrotation Xrotation Yrotation
      JOINT LeftFoot
      {
        OFFSET 3.16933 -46.5642 -3.96578
        CHANNELS 3 Zrotation Xrotation Yrotation
        JOINT LeftToeBase
        {
          OFFSET 0.346054 -6.02161 12.8035
          CHANNELS 3 Zrotation Xrotation Yrotation
          End Site
          {
            OFFSET 0.134235 -1.35082 5.13018
          }
        }
      }
    }
  }
  JOINT RightUpLeg
  {
    OFFSET -5.7928 -1.72406 10.6446
    CHANNELS 3 Zrotation Xrotation Yrotation
    JOINT RightLeg
    {
      OFFSET -2.57161 -44.7178 -7.85259
      CHANNELS 3 Zrotation Xrotation Yrotation
      JOINT RightFoot
      {
        OFFSET -3.10148 -46.5936 -4.03391
        CHANNELS 3 Zrotation Xrotation Yrotation
        JOINT RightToeBase
        {
          OFFSET -0.0828122 -6.13587 12.8035
          CHANNELS 3 Zrotation Xrotation Yrotation
          End Site
          {
            OFFSET -0.131328 -1.35082 5.13018
          }
        }
      }
    }
  }
}
MOTION
Frames:	6
Frame Time:	0.0333333
44.9466 96.4946 -274.912 -20.5936 -77.415 -107.879 -70.1915 0 88.8779 133.637 71.5846 -41.0424 7.83034 25.9416 -2.33134 -155.892 21.3055 167.885 -149.984 58.5481 166.856 2.19568 -1.61735 -24.8271 -64.5656 60.7993 -84.3804 -0.686232 -6.60435 -21.9586 10.8058 -0.889402 -7.47912 0.35895 -1.37858 26.3546 -50.1526 -49.8224 105.673 6.78646 -4.82661 40.3177 8.56778 0.205224 2.58851 -17.4293 -1.74947 85.6442 -4.87057 66.6612 7.15547 1.53544 9.05122 0.227238 -6.46285 -24.5684 13.4845 -55.8416 7.3985 83.4185 10.5222 74.4264 -5.90368 -5.52409 -4.15977 0.936765 -15.6077 22.0347 14.9677 
45.4926 98.3223 -261.136 -33.9719 -78.272 -123.274 -70.1915 0 88.8779 132.073 71.9742 -42.6901 9.20432 25.6492 -2.30464 -153.549 21.0997 170.13 -150.709 58.4585 166.906 2.37364 -1.05667 -26.0963 -70.765 57.406 -78.2425 -0.779616 -6.05911 -24.7655 8.8618 -0.744072 -7.63165 0.330675 -1.19653 25.6652 -49.4404 -50.8973 103.122 7.40963 -5.72896 39.3569 7.75242 0.246583 3.59024 -24.2864 -0.287191 91.0666 -2.22724 45.2037 -1.81605 0.775966 12.6527 0.608697 -5.25294 -16.6224 12.3221 -54.6896 8.26166 90.558 28.6224 83.5472 -26.8489 -6.0667 -0.228332 0.91041 -6.95844 28.9858 -3.25641 
45.905 98.1817 -246.505 -49.5761 -79.7165 -140.47 -70.1915 0 88.8779 127.353 71.7717 -41.1129 10.3222 24.4871 -2.18423 -150.637 19.5137 170.757 -150.688 56.7691 166.725 2.35025 -1.14259 -25.96 -76.7722 53.0017 -74.1283 -0.0917593 -4.15125 -26.9306 8.95673 -0.720933 -7.25292 0.349663 -1.36876 25.254 -48.4429 -51.9607 100.682 7.29048 -6.4951 34.6817 6.78407 0.222745 3.76982 -30.4214 1.53742 99.7597 -1.72333 40.4804 -0.421957 0.715244 12.1855 0.592432 -4.92197 -12.1834 14.7509 -50.8926 9.14382 95.2774 137.781 84.9956 -139.195 -5.59529 1.73627 0.809767 2.54797 15.7469 -15.2068 
46.9061 96.132 -231.812 -47.0886 -83.6098 -136.777 -70.1915 0 88.8779 124.686 68.1346 -38.8303 7.83573 20.9883 -1.63424 -148.956 17.3862 169.829 -150.019 54.2325 164.631 2.25876 -0.890246 -24.4208 -75.6744 48.3302 -80.1134 -0.971903 -6.16952 -25.7612 10.5028 -0.895157 -7.79724 0.329814 -1.23239 24.7638 -46.1314 -52.5806 97.4409 5.29209 -4.32328 29.2377 6.76582 0.166319 2.73109 -33.1738 0.32918 101.627 -2.71693 51.6649 1.08461 5.88592 14.5249 -0.520356 -5.75028 -18.3658 15.7257 -43.2686 7.70056 93.1915 155.863 80.7959 -155.92 -6.75786 -2.83991 1.026 4.33787 3.75313 -13.7414 
47.4161 93.9372 -216.903 -111.853 -88.3753 155.678 -70.1915 0 88.8779 122.707 65.7794 -42.8959 7.82303 18.6272 0.492504 -147.689 16.2334 170.31 -149.843 53.1919 166.568 2.35049 -0.599668 -25.0555 -76.2819 40.8528 -89.4084 0.556115 -3.55956 -22.9172 11.6065 -0.820526 -6.20477 0.287907 -0.898611 24.1085 -51.4709 -54.121 88.2691 4.04937 -2.73174 23.866 6.59938 0.0811064 1.18491 -41.5578 -4.19189 102.716 -4.6935 62.8893 3.52634 10.2348 14.3896 -1.5792 -8.86519 -37.9011 10.6179 -38.0767 3.09776 93.9405 149.994 82.5092 -148.795 -6.50365 -5.81265 1.04544 9.2849 -8.43278 -21.3904 
48.3251 92.7679 -202.998 51.6862 -86.1811 -40.9925 -70.1915 0 88.8779 109.339 66.2442 -28.6824 8.51264 16.7947 -0.763993 -146.022 16.1377 169.719 -149.099 53.1185 166.707 2.39792 -0.791483 -25.9301 -85.4821 34.2752 -97.0912 0.936625 -0.234222 -19.2498 10.184 -0.770507 -6.73994 0.324018 -1.16121 25.2665 -81.3357 -47.7991 62.4341 0.653872 -15.8894 15.0431 6.01043 -0.0418675 -1.26076 -43.4446 -6.70129 100.69 -8.42489 70.8448 4.18702 10.0462 11.2466 -1.48745 -11.0937 -45.5273 7.50714 -25.7667 -0.658656 92.0566 37.8516 85.1123 -38.2777 -6.31799 -6.02868 1.03575 10.7212 -14.831 -22.807 
